<svg fill="none" height="48" viewBox="0 0 48 48" width="48" xmlns="http://www.w3.org/2000/svg"><path clip-rule="evenodd" d="m25.0941 8.29441c-.6727-.39255-1.5048-.39255-2.1775 0l-9.9688 5.81539c-1.8253 1.065-2.9478 3.0193-2.9478 5.1327v11.6869c0 .7685.4082 1.4791 1.0719 1.8664l11.8447 6.9098c.6727.3925 1.5048.3925 2.1775 0 1.1065-.6455 1.7869-1.8301 1.7869-3.1111v-11.8982c0-1.1434.6024-2.2022 1.5855-2.7863l6.7127-3.9887c.45-.2674 1.0201.0569 1.0201.5805v13.8693c0 .3795.4117.6159.7395.4247.6637-.3873 1.0719-1.0979 1.0719-1.8664v-13.8588c0-.7685-.4082-1.4791-1.0719-1.8664zm-10.8706 14.40149c.028.0281.0702.0562.1123.0843.0421.028.0842.0561.1123.0842.2808.337.4493.7862.337 1.0671l-.8986 2.0779c-.1123.2246-.3369.2808-.5616.1123-.0281-.0281-.0702-.0561-.1123-.0842-.0422-.0281-.0843-.0562-.1123-.0843-.2808-.3369-.4493-.7862-.337-1.067l.8986-2.078c.1123-.1684.3369-.2246.5616-.1123zm2.4139 1.4327h-.0001c-.0421-.0281-.0842-.0562-.1123-.0843-.2246-.1123-.4492-.1123-.5616.1124l-.8985 2.0779c-.1124.2808.0561.7301.3369 1.067.0281.0281.0702.0562.1124.0843.0421.0281.0842.0561.1123.0842.2246.1123.4493.1124.5616-.1123l.8986-2.0779c.1123-.2808-.0562-.7301-.337-1.0671-.0281-.0281-.0702-.0561-.1123-.0842zm2.2439 1.2638c.0281.0281.0702.0562.1123.0843.0422.028.0843.0561.1123.0842.2808.337.4493.7862.337 1.067l-.8986 2.078c-.1123.2246-.3369.2808-.5616.1123-.0281-.0281-.0702-.0562-.1123-.0842-.0421-.0281-.0842-.0562-.1123-.0843-.2808-.3369-.4493-.7862-.337-1.067l.8986-2.078c.0562-.2246.2808-.2808.5616-.1123zm2.4157 1.4315v-.0001c-.0421-.028-.0842-.0561-.1123-.0842-.2247-.1685-.5055-.1123-.5616.1123l-.8986 2.078c-.1123.2808.0562.7301.337 1.067.0281.0281.0702.0562.1123.0843.0421.028.0842.0561.1123.0842.2247.1123.4493.1123.5616-.1123l.8986-2.078c.1123-.2808-.0562-.73-.337-1.067-.0281-.0281-.0702-.0562-.1123-.0842zm7.8814 6.2046v-.624-1.7218s0-.574.5402-.8103c.5402-.2364.844.2701.844.2701l.6415 1.857 3.545-2.7685s.3039-.2364.6415.0337c.3376.2702.135.6077.135.6077l-1.4517 2.5321s.4726.1351.4726.4391v.5826c0 .8122-.423 1.566-1.1164 1.989-1.863 1.1365-4.2517-.2044-4.2517-2.3867zm3.2201-11.5045c-1.5455.8919-2.7914 3.057-2.7914 4.834s1.2595 2.4919 2.8051 1.6c1.5455-.8919 2.7914-3.057 2.7914-4.834 0-1.7771-1.2595-2.492-2.8051-1.6zm.6788 1.259c-.6017.3373-1.0868 1.1561-1.0868 1.8281s.4904.9423 1.0921.605c.6016-.3373 1.0867-1.156 1.0867-1.828s-.4904-.9423-1.092-.6051z" fill="#294bf5" fill-rule="evenodd"/></svg>